<svg width="24" height="18" viewBox="0 0 24 18" fill="none" xmlns="http://www.w3.org/2000/svg">
<path fill-rule="evenodd" clip-rule="evenodd" d="M12.0667 0.0343814C12.3648 2.2306 13.7103 4.28445 15.874 5.84607C18.0377 7.40769 20.8859 8.3805 23.9333 8.5988C23.951 8.5988 23.9679 8.60386 23.9805 8.61288C23.993 8.6219 24 8.63413 24 8.64688C23.9977 8.6584 23.9897 8.66893 23.9774 8.67651C23.9651 8.68409 23.9494 8.6882 23.9333 8.68808C20.8865 8.90764 18.0394 9.88086 15.876 11.4422C13.7126 13.0036 12.3665 15.0568 12.0667 17.2525C12.0625 17.2628 12.0536 17.2717 12.0415 17.2779C12.0295 17.2841 12.0148 17.2873 12 17.2868C11.9864 17.287 11.9731 17.2836 11.9626 17.2773C11.9521 17.271 11.9451 17.2622 11.9428 17.2525C11.6409 15.0562 10.2929 13.0029 8.12792 11.4416C5.96295 9.88037 3.11454 8.9074 0.0667249 8.68808C0.0584576 8.68909 0.0499858 8.68878 0.0419061 8.68716C0.0338264 8.68555 0.0263366 8.68267 0.0199705 8.67874C0.0136044 8.67481 0.008517 8.66992 0.00506682 8.66441C0.00161664 8.6589 -0.000111808 8.65292 5.60538e-06 8.64688C-0.000160041 8.63523 0.00554737 8.62394 0.0160655 8.6151C0.0265836 8.60625 0.0411987 8.60046 0.0571951 8.5988C3.10803 8.3835 5.96063 7.41201 8.12822 5.85012C10.2958 4.28822 11.644 2.23272 11.9428 0.0343814C11.9451 0.0246808 11.9521 0.0158866 11.9626 0.00958844C11.9731 0.0032903 11.9864 -9.61416e-05 12 4.12975e-05C12.0148 -0.000402067 12.0295 0.00273479 12.0415 0.00895499C12.0536 0.0151752 12.0625 0.0241231 12.0667 0.0343814Z" fill="#021E30"/>
</svg>
